<?xml version="1.0" encoding="UTF-8" standalone="no" ?>
<svg xmlns="http://www.w3.org/2000/svg" xmlns:xlink="http://www.w3.org/1999/xlink" version="1.1" width="130" height="130" viewBox="0 0 130 130" xml:space="preserve">
<rect x="0" y="0" width="100%" height="100%" fill="transparent"></rect>
<g transform="matrix(1 0 0 1 65 65)" id="d39cfb0c-5161-4e7f-94a7-0b28046d14f8"  >
<rect style="stroke: none; stroke-width: 1; stroke-dasharray: none; stroke-linecap: butt; stroke-dashoffset: 0; stroke-linejoin: miter; stroke-miterlimit: 4; fill: rgb(255,255,255); fill-rule: nonzero; opacity: 1; visibility: hidden;" vector-effect="non-scaling-stroke"  x="-65" y="-65" rx="0" ry="0" width="130" height="130" />
</g>
<g transform="matrix(Infinity NaN NaN Infinity 0 0)" id="b980a423-d7fe-40cb-8911-be52b88030ef"  >
</g>
<g transform="matrix(0.23 0 0 0.23 65 65)" id="aad3802b-7a04-4c92-8413-5c5fae3e4ee3"  >
<path style="stroke: rgb(0,0,0); stroke-width: 0; stroke-dasharray: none; stroke-linecap: butt; stroke-dashoffset: 0; stroke-linejoin: miter; stroke-miterlimit: 4; fill: rgb(0,0,0); fill-rule: nonzero; opacity: 1;" vector-effect="non-scaling-stroke"  transform=" translate(-236.03, -236.03)" d="M 110.426 302.306 C 110.426 311.65999999999997 120.794 314.01599999999996 128.748 314.01599999999996 L 130.671 314.01599999999996 C 138.62199999999999 314.01599999999996 141.826 311.65999999999997 141.826 302.306 L 141.826 260.433 L 172.703 248.727 C 172.238 251.841 171.917 254.998 171.917 258.233 C 171.917 285.319 188.732 308.434 212.478 317.819 L 212.478 378.27500000000003 L 141.825 438.379 L 141.825 472.06600000000003 L 236.02999999999997 450.67 L 330.236 472.06600000000003 L 330.236 438.379 L 259.582 378.27500000000003 L 259.582 317.819 C 283.318 308.42600000000004 300.144 285.319 300.144 258.233 C 300.144 254.999 299.82800000000003 251.841 299.355 248.727 L 330.236 260.433 L 330.236 302.306 C 330.236 311.65999999999997 333.438 314.01599999999996 341.389 314.01599999999996 L 343.312 314.01599999999996 C 351.271 314.01599999999996 361.634 311.65999999999997 361.634 302.306 L 361.634 272.339 L 471.54200000000003 314.016 L 471.54200000000003 283.596 L 361.634 207.323 L 361.634 191.73000000000002 C 361.634 182.38700000000003 351.271 141.30700000000002 343.312 141.30700000000002 L 341.389 141.30700000000002 C 334.62 141.30700000000002 331.294 171.084 330.449 185.685 L 259.582 136.50400000000002 L 259.582 54.952 C 259.582 41.942 249.042 0 236.03 0 C 223.02 0 212.478 41.941 212.478 54.952 L 212.478 136.503 L 141.6 185.69 C 140.768 171.083 137.446 141.30599999999998 130.672 141.30599999999998 L 128.749 141.30599999999998 C 120.794 141.30599999999998 110.42699999999999 182.38599999999997 110.42699999999999 191.72899999999998 L 110.42699999999999 207.32199999999997 L 0.521 283.596 L 0.521 314.016 L 110.427 272.339 L 110.427 302.306 z" stroke-linecap="round" />
</g>
</svg>