<?xml version="1.0" encoding="iso-8859-1"?>
<!-- Uploaded to: SVG Repo, www.svgrepo.com, Generator: SVG Repo Mixer Tools -->
<svg fill="#000000" height="512px" width="512px" version="1.1" id="Layer_1" xmlns="http://www.w3.org/2000/svg" xmlns:xlink="http://www.w3.org/1999/xlink" 
	 viewBox="0 0 512 512" xml:space="preserve">
<g>
	<g>
		<path d="M195.376,113.07L0,308.446l164.921,164.921l195.376-195.376L195.376,113.07z M261.631,238.459l-24.248,24.248
			l-26.724-26.724l24.248-24.248L261.631,238.459z M222.834,277.256l-24.248,24.248l-26.724-26.724l24.248-24.248L222.834,277.256z
			 M195.376,172.204l26.724,26.724l-24.248,24.248l-26.724-26.724L195.376,172.204z M156.579,211.001l26.724,26.724l-24.248,24.248
			l-26.724-26.724L156.579,211.001z M93.535,274.046l24.248-24.248l26.724,26.724l-24.248,24.248L93.535,274.046z M159.789,340.301
			l-26.724-26.724l24.248-24.248l26.724,26.724L159.789,340.301z M199.32,379.831l-26.724-26.724l24.248-24.248l26.724,26.724
			L199.32,379.831z M238.117,341.035l-26.724-26.724l24.248-24.248l26.724,26.724L238.117,341.035z M250.189,275.513l24.248-24.248
			l26.724,26.724l-24.248,24.248L250.189,275.513z"/>
	</g>
</g>
<g>
	<g>
		<path d="M296.787,99.312c-16.258-16.258-42.713-16.258-58.971,0l-6.587,6.587l58.971,58.971l6.587-6.587
			C313.045,142.025,313.045,115.57,296.787,99.312z"/>
	</g>
</g>
<g>
	<g>
		<polygon points="512,60.144 490.489,38.633 363.299,165.823 344.568,147.093 308.496,183.166 367.468,242.138 403.54,206.065 
			384.81,187.335 		"/>
	</g>
</g>
</svg>