<?xml version="1.0" encoding="UTF-8" standalone="no" ?>
<svg xmlns="http://www.w3.org/2000/svg" xmlns:xlink="http://www.w3.org/1999/xlink" version="1.1" width="130" height="130" viewBox="0 0 130 130" xml:space="preserve">
<g transform="matrix(1 0 0 1 65 65)" id="5cc1ac17-a07b-4c2b-8d1a-3a63804c0f97"  >
<rect style="stroke: none; stroke-width: 1; stroke-dasharray: none; stroke-linecap: butt; stroke-dashoffset: 0; stroke-linejoin: miter; stroke-miterlimit: 4; fill: rgb(255,255,255); fill-rule: nonzero; opacity: 1; visibility: hidden;" vector-effect="non-scaling-stroke"  x="-65" y="-65" rx="0" ry="0" width="130" height="130" />
</g>
<g transform="matrix(Infinity NaN NaN Infinity 0 0)" id="a60ea90d-511b-48b9-88b1-65cadd7b6c68"  >
</g>
<g transform="matrix(0.12 0 0 0.12 65 65)"  >
<g style="" vector-effect="non-scaling-stroke"   >
		<g transform="matrix(1.67 0 0 1.67 0 -20.33)"  >
<path style="stroke: none; stroke-width: 1; stroke-dasharray: none; stroke-linecap: butt; stroke-dashoffset: 0; stroke-linejoin: miter; stroke-miterlimit: 4; fill: rgb(0,0,0); fill-rule: nonzero; opacity: 1;" vector-effect="non-scaling-stroke"  transform=" translate(-239.44, -227.27)" d="M 463.096 252.605 L 329.716 199.744 L 329.716 78.503 L 329.716 47.101 C 329.716 42.763 326.197 39.25 321.865 39.25 C 317.533 39.25 314.014 42.763 314.014 47.101 L 314.014 78.503 L 302.445 78.503 C 293.433 32.987 266.884 0 235.512 0 C 204.142 0 177.59300000000002 32.987 168.574 78.503 L 149.15800000000002 78.503 L 149.15800000000002 47.101 C 149.15800000000002 42.763 145.639 39.25 141.30700000000002 39.25 C 136.97500000000002 39.25 133.45700000000002 42.763 133.45700000000002 47.101 L 133.45700000000002 78.503 L 133.45700000000002 121.963 L 24.457000000000022 78.76299999999999 C 17.47000000000002 75.99199999999999 9.860000000000023 78.651 7.467000000000024 84.696 C 5.072000000000024 90.741 8.794000000000024 97.883 15.779000000000023 100.657 L 133.45700000000002 147.296 L 133.45700000000002 227.659 L 133.45700000000002 251.20999999999998 C 133.45700000000002 255.551 136.97500000000002 259.061 141.30700000000002 259.061 C 145.639 259.061 149.15800000000002 255.551 149.15800000000002 251.20999999999998 L 149.15800000000002 227.66 L 197.258 227.66 C 204.898 252.899 211.961 285.856 211.961 321.86699999999996 L 211.961 400.36899999999997 L 219.812 400.36899999999997 L 219.812 439.897 C 219.812 447.976 226.839 454.541 235.513 454.541 C 244.187 454.541 251.21200000000002 447.977 251.21200000000002 439.897 L 251.21200000000002 400.36899999999997 L 259.06300000000005 400.36899999999997 L 259.06300000000005 321.86699999999996 C 259.06300000000005 286.24899999999997 266.047 253.21199999999996 273.66900000000004 227.65999999999997 L 314.016 227.65999999999997 L 314.016 251.21099999999996 C 314.016 255.55199999999996 317.535 259.06199999999995 321.867 259.06199999999995 C 326.199 259.06199999999995 329.718 255.55199999999996 329.718 251.21099999999996 L 329.718 227.66 L 329.718 225.077 L 454.42100000000005 274.502 C 461.40200000000004 277.27500000000003 469.01700000000005 274.623 471.4080000000001 268.567 C 473.799 262.512 470.081 255.383 463.096 252.605 z M 314.015 94.204 L 314.015 193.526 L 289.883 183.959 C 299.793 164.535 305.76 139.711 305.76 112.652 C 305.76 106.355 305.351 100.217 304.73 94.20400000000001 L 314.015 94.20400000000001 z M 149.158 94.204 L 166.29 94.204 C 165.66899999999998 100.21799999999999 165.267 106.35499999999999 165.267 112.65199999999999 C 165.267 120.34599999999999 165.753 127.85899999999998 166.673 135.11999999999998 L 149.15800000000002 128.18099999999998 L 149.15800000000002 94.204 z M 149.158 211.958 L 149.158 153.522 L 172.694 162.849 C 174.469 168.53699999999998 176.523 173.94199999999998 178.849 179.035 L 178.416 178.887 C 178.416 178.887 184.892 191.344 192.156 211.958 L 149.158 211.958 z M 278.714 211.958 C 279.463 209.778 280.193 207.75 280.934 205.743 L 296.61600000000004 211.958 L 278.714 211.958 z" stroke-linecap="round" />
</g>
		<g transform="matrix(1.67 0 0 1.67 45.9 340.98)"  >
<path style="stroke: none; stroke-width: 1; stroke-dasharray: none; stroke-linecap: butt; stroke-dashoffset: 0; stroke-linejoin: miter; stroke-miterlimit: 4; fill: rgb(0,0,0); fill-rule: nonzero; opacity: 1;" vector-effect="non-scaling-stroke"  transform=" translate(-266.91, -443.55)" d="M 266.913 408.219 C 262.58500000000004 408.219 259.062 411.73699999999997 259.062 416.069 L 259.062 471.023 C 259.062 475.355 262.584 478.874 266.913 478.874 C 271.245 478.874 274.76300000000003 475.355 274.76300000000003 471.023 L 274.76300000000003 416.069 C 274.762 411.736 271.245 408.219 266.913 408.219 z" stroke-linecap="round" />
</g>
</g>
</g>
</svg>