<?xml version="1.0" encoding="iso-8859-1"?>
<!-- Uploaded to: SVG Repo, www.svgrepo.com, Generator: SVG Repo Mixer Tools -->
<svg fill="#000000" height="800px" width="800px" version="1.1" id="Layer_1" xmlns="http://www.w3.org/2000/svg" xmlns:xlink="http://www.w3.org/1999/xlink" 
	 viewBox="0 0 329.976 329.976" xml:space="preserve">
<g id="XMLID_510_">
	<path id="XMLID_511_" d="M195.386,181.141c-1.554-4.095-3.965-7.853-7.155-11.043c-5.932-5.933-13.817-9.2-22.206-9.2
		s-16.275,3.268-22.208,9.199c-0.723,0.722-1.403,1.475-2.045,2.252c-0.013,0.015-0.025,0.028-0.037,0.042
		c-4.609,5.603-7.117,12.566-7.117,19.913c0,8.388,3.267,16.274,9.198,22.204c5.933,5.933,13.817,9.2,22.207,9.2h0.002
		c8.387,0,16.271-3.267,22.204-9.199c5.932-5.932,9.198-13.818,9.199-22.207c0-3.733-0.65-7.365-1.891-10.771
		C195.486,181.4,195.433,181.273,195.386,181.141z"/>
	<path id="XMLID_512_" d="M208.83,26.262c-16.169-13.138-38.225-18.059-56.183-12.55c-29.288,8.971-50.995,29.482-59.553,56.276
		c-9.321,29.184-2.61,61.99,18.853,93.173c2.804-5.184,6.371-9.993,10.656-14.277c3.191-3.191,6.681-5.974,10.393-8.351
		c9.775-6.264,21.14-9.636,33.028-9.636c2.142,0,4.266,0.114,6.367,0.33c10.335,1.058,20.104,4.694,28.571,10.58
		c0.941-8.659,5.545-15.155,11.477-23.501c7.27-10.229,16.32-22.962,18.082-41.671C232.303,57.272,224.397,38.911,208.83,26.262z"/>
	<path id="XMLID_515_" d="M206.897,269.497c5.224,11.412,11.726,25.615,27.048,36.498c9.818,6.94,21.156,10.48,32.811,10.48
		c7.193,0,14.508-1.349,21.658-4.08c19.461-7.432,34.756-24.071,38.963-42.383c6.875-29.849-0.036-58.902-18.961-79.71
		c-20.616-22.668-52.386-33.256-90.132-30.258c5.482,8.846,8.621,18.949,9.078,29.541c0.039,0.902,0.066,1.809,0.066,2.718
		c-0.001,13.136-4.107,25.635-11.696,36.052c-1.888,2.59-3.98,5.057-6.29,7.366c-5.06,5.062-10.85,9.129-17.13,12.108
		C199.318,252.973,202.641,260.2,206.897,269.497z"/>
	<path id="XMLID_516_" d="M33.602,194.279c-17.659,8.139-29.607,24.165-32.778,43.969c-3.294,20.569,3.468,42.136,17.223,54.936
		c17.722,16.509,39.321,25.304,61.173,25.304c5.783,0,11.587-0.617,17.338-1.869c29.947-6.522,55.012-28.753,71.285-62.955
		c-0.606,0.017-1.209,0.044-1.817,0.044c-0.002,0-0.002,0-0.004,0c-10.028-0.001-19.683-2.399-28.325-6.905
		c-5.496-2.864-10.586-6.574-15.093-11.082c-5.396-5.395-9.647-11.625-12.67-18.39c-3.473-7.775-5.315-16.257-5.315-25.028
		c0-1.684,0.084-3.354,0.218-5.014c-7.972,3.518-15.902,2.781-26.102,1.814C66.236,187.921,50.685,186.45,33.602,194.279z"/>
</g>
</svg>